<svg height="512pt" viewBox="0 0 512 512" width="512pt" xmlns="http://www.w3.org/2000/svg"><g fill="#00d8e0"><path d="m476.726562 274.09375c-22.605468-53.441406-54.960937-101.4375-96.175781-142.648438-41.210937-41.210937-89.207031-73.566406-142.652343-96.171874-55.339844-23.40625-114.117188-35.273438-174.699219-35.273438-34.847657 0-63.199219 28.351562-63.199219 63.199219 0 34.851562 28.351562 63.199219 63.199219 63.199219 177.773437 0 322.398437 144.628906 322.398437 322.398437 0 34.851563 28.355469 63.203125 63.203125 63.203125 34.847657 0 63.199219-28.351562 63.199219-63.199219 0-60.585937-11.867188-119.363281-35.273438-174.707031zm0 0"/><path d="m63.199219 192.800781c-34.847657 0-63.199219 28.347657-63.199219 63.199219 0 34.847656 28.351562 63.199219 63.199219 63.199219 71.460937 0 129.601562 58.136719 129.601562 129.601562 0 34.847657 28.351563 63.199219 63.199219 63.199219s63.199219-28.351562 63.199219-63.199219c0-68.386719-26.628907-132.671875-74.976563-181.023437-48.355468-48.351563-112.640625-74.976563-181.023437-74.976563zm0 0"/><path d="m107.890625 404.109375c-24.644531-24.640625-64.734375-24.640625-89.378906 0-24.640625 24.644531-24.640625 64.738281 0 89.378906s64.734375 24.644531 89.378906 0c24.640625-24.640625 24.640625-64.734375 0-89.378906zm0 0"/></g><path d="m476.726562 274.09375c-22.605468-53.441406-54.960937-101.4375-96.171874-142.648438l-89.488282 89.492188c58.378906 58.375 94.535156 138.976562 94.535156 227.863281 0 34.847657 28.351563 63.199219 63.199219 63.199219 34.847657 0 63.199219-28.351562 63.199219-63.199219 0-60.585937-11.867188-119.363281-35.273438-174.707031zm0 0" fill="#00acb3"/><path d="m192.800781 448.800781c0 34.847657 28.351563 63.199219 63.199219 63.199219s63.199219-28.351562 63.199219-63.199219c0-68.382812-26.628907-132.671875-74.976563-181.023437l-89.421875 89.421875c23.464844 23.46875 38 55.867187 38 91.601562zm0 0" fill="#00acb3"/><path d="m107.890625 493.488281c24.644531-24.640625 24.640625-64.734375 0-89.378906l-89.378906 89.378906c24.640625 24.640625 64.734375 24.644531 89.378906 0zm0 0" fill="#00acb3"/></svg>